<?xml version="1.0" standalone="no"?>
<!DOCTYPE svg PUBLIC "-//W3C//DTD SVG 20010904//EN"
 "http://www.w3.org/TR/2001/REC-SVG-20010904/DTD/svg10.dtd">
<svg version="1.0" xmlns="http://www.w3.org/2000/svg"
 width="904.000000pt" height="904.000000pt" viewBox="0 0 904.000000 904.000000"
 preserveAspectRatio="xMidYMid meet">
<metadata>
Created by potrace 1.14, written by Peter Selinger 2001-2017
</metadata>
<g transform="translate(0.000000,904.000000) scale(0.100000,-0.100000)"
fill="#000000" stroke="none">
<path d="M4210 8260 c0 -5 4 -10 9 -10 6 0 13 5 16 10 3 6 -1 10 -9 10 -9 0
-16 -4 -16 -10z"/>
<path d="M4248 8063 c7 -3 16 -2 19 1 4 3 -2 6 -13 5 -11 0 -14 -3 -6 -6z"/>
<path d="M3835 8050 c3 -5 11 -10 16 -10 6 0 7 5 4 10 -3 6 -11 10 -16 10 -6
0 -7 -4 -4 -10z"/>
<path d="M3870 8011 c0 -20 5 -31 14 -31 9 0 12 8 8 25 -7 37 -22 41 -22 6z"/>
<path d="M3243 7995 c-3 -9 -3 -18 0 -22 10 -10 37 6 37 22 0 20 -29 20 -37 0z"/>
<path d="M4398 7919 c-19 -29 -9 -60 11 -35 7 8 11 25 9 38 l-3 22 -17 -25z"/>
<path d="M4350 7882 c0 -22 19 -42 40 -42 12 1 12 2 -2 11 -10 5 -18 19 -18
29 0 11 -4 20 -10 20 -5 0 -10 -8 -10 -18z"/>
<path d="M4511 7884 c0 -11 3 -14 6 -6 3 7 2 16 -1 19 -3 4 -6 -2 -5 -13z"/>
<path d="M4280 7880 c0 -5 5 -10 11 -10 5 0 7 5 4 10 -3 6 -8 10 -11 10 -2 0
-4 -4 -4 -10z"/>
<path d="M4100 7831 c0 -5 7 -12 16 -15 22 -9 24 -8 18 9 -7 16 -34 21 -34 6z"/>
<path d="M3335 7820 c-3 -5 1 -10 10 -10 9 0 13 5 10 10 -3 6 -8 10 -10 10 -2
0 -7 -4 -10 -10z"/>
<path d="M4180 7790 c0 -5 5 -10 10 -10 6 0 10 5 10 10 0 6 -4 10 -10 10 -5 0
-10 -4 -10 -10z"/>
<path d="M4615 7770 c-4 -6 -3 -16 3 -22 6 -6 12 -6 17 2 4 6 3 16 -3 22 -6 6
-12 6 -17 -2z"/>
<path d="M4470 7750 c-11 -7 -12 -12 -4 -20 8 -8 14 -7 23 4 14 17 1 28 -19
16z"/>
<path d="M3521 7721 c-12 -21 -8 -41 9 -41 13 0 21 31 11 47 -7 14 -10 13 -20
-6z"/>
<path d="M4510 7725 c0 -8 5 -15 10 -15 6 0 10 7 10 15 0 8 -4 15 -10 15 -5 0
-10 -7 -10 -15z"/>
<path d="M2946 7711 c-4 -6 4 -15 18 -21 14 -5 26 -16 26 -25 0 -8 7 -15 16
-15 11 0 14 5 10 16 -3 9 -6 20 -6 25 0 5 -8 9 -18 9 -10 0 -23 5 -29 11 -8 8
-13 8 -17 0z"/>
<path d="M4580 7700 c0 -5 5 -10 10 -10 6 0 10 5 10 10 0 6 -4 10 -10 10 -5 0
-10 -4 -10 -10z"/>
<path d="M5416 7691 c-3 -5 0 -14 8 -20 10 -9 15 -8 19 3 9 22 -15 37 -27 17z"/>
<path d="M4200 7665 c0 -9 9 -15 21 -15 18 0 19 2 5 15 -8 8 -17 15 -20 15 -3
0 -6 -7 -6 -15z"/>
<path d="M5362 7659 c2 -7 10 -15 17 -17 8 -3 12 1 9 9 -2 7 -10 15 -17 17 -8
3 -12 -1 -9 -9z"/>
<path d="M3765 7640 c-4 -6 -3 -16 3 -22 6 -6 12 -6 17 2 4 6 3 16 -3 22 -6 6
-12 6 -17 -2z"/>
<path d="M4225 7636 c-24 -17 -19 -24 22 -32 27 -5 30 -3 28 18 -2 28 -23 34
-50 14z"/>
<path d="M3330 7604 c0 -8 5 -12 10 -9 6 3 10 10 10 16 0 5 -4 9 -10 9 -5 0
-10 -7 -10 -16z"/>
<path d="M4617 7593 c-13 -12 -7 -33 8 -33 8 0 15 9 15 20 0 20 -11 26 -23 13z"/>
<path d="M5635 7590 c-3 -5 -1 -10 4 -10 6 0 11 5 11 10 0 6 -2 10 -4 10 -3 0
-8 -4 -11 -10z"/>
<path d="M3629 7588 c0 -2 -2 -14 -3 -28 -2 -14 -6 -32 -10 -41 -5 -11 -2 -19
8 -22 39 -15 70 30 42 59 -9 9 -14 20 -11 25 4 5 -1 9 -9 9 -9 0 -16 -1 -17
-2z"/>
<path d="M4860 7576 c0 -9 7 -16 16 -16 17 0 14 22 -4 28 -7 2 -12 -3 -12 -12z"/>
<path d="M3260 7566 c0 -9 5 -16 10 -16 6 0 10 6 10 13 0 8 4 7 11 -3 9 -13
10 -13 6 0 -5 21 -37 26 -37 6z"/>
<path d="M4732 7569 c2 -6 8 -10 13 -10 5 0 11 4 13 10 2 6 -4 11 -13 11 -9 0
-15 -5 -13 -11z"/>
<path d="M4917 7573 c-4 -3 -7 -15 -7 -25 0 -10 -7 -18 -16 -18 -11 0 -14 -5
-10 -17 6 -16 5 -16 -12 0 -19 17 -20 17 -25 -3 -6 -24 -57 -29 -57 -5 0 20
-25 19 -98 -4 -87 -28 -132 -36 -132 -22 0 6 15 11 33 11 22 0 28 3 18 9 -8 5
-20 7 -27 4 -7 -3 -14 5 -16 19 l-3 23 -23 -23 c-19 -19 -21 -26 -11 -38 15
-18 13 -20 -34 -27 -27 -4 -37 -3 -34 6 2 7 12 11 22 9 17 -3 17 -3 1 13 -13
14 -22 15 -44 7 -35 -13 -70 -13 -77 -1 -11 18 -35 9 -36 -13 -1 -17 -2 -19
-6 -5 -5 19 -38 23 -49 5 -4 -6 1 -17 10 -24 10 -7 15 -17 11 -23 -3 -6 2 -11
12 -11 13 -1 11 -5 -9 -16 -35 -18 -35 -31 -3 -46 16 -7 25 -19 25 -34 0 -12
6 -25 13 -27 9 -4 9 -8 -1 -15 -8 -5 -12 -20 -10 -33 2 -19 -3 -25 -29 -32
-18 -6 -33 -14 -33 -19 0 -5 -4 -6 -10 -3 -5 3 -10 1 -10 -4 0 -6 -18 -11 -40
-11 -36 0 -40 3 -40 25 0 18 -5 25 -20 25 -11 0 -23 7 -26 15 -4 8 -17 15 -30
15 -19 0 -24 -5 -24 -25 0 -14 3 -24 8 -24 19 3 30 -3 34 -19 5 -16 -2 -18
-59 -17 -59 1 -65 3 -94 34 -25 27 -33 31 -40 20 -5 -9 -9 -9 -9 -2 0 12 -126
30 -136 20 -3 -3 -3 -15 1 -26 5 -17 15 -21 46 -21 24 0 38 4 34 10 -10 16 11
12 25 -5 8 -9 8 -15 2 -15 -6 0 -4 -12 4 -30 16 -31 28 -37 39 -20 3 5 -3 15
-15 22 -11 7 -20 16 -20 20 0 14 20 8 38 -10 16 -16 17 -22 5 -38 -11 -16 -18
-17 -51 -7 -20 5 -46 14 -56 18 -17 7 -18 5 -13 -18 5 -16 2 -27 -6 -30 -8 -4
-7 -6 3 -7 8 0 24 -8 35 -17 19 -15 19 -15 -7 -9 -22 5 -28 3 -28 -10 0 -13
-3 -14 -14 -5 -18 15 -27 51 -13 51 8 0 7 4 -1 12 -9 9 -15 9 -24 0 -10 -10
-10 -15 2 -22 23 -15 -6 -30 -41 -20 -19 6 -33 4 -46 -6 -10 -7 -13 -14 -8
-14 11 0 -16 -20 -28 -20 -5 0 -5 9 -2 20 5 14 2 20 -9 20 -9 0 -16 7 -16 16
0 8 -4 13 -9 10 -4 -3 -16 3 -26 14 -25 28 -48 15 -41 -23 4 -17 12 -35 19
-39 8 -6 5 -8 -8 -6 -14 2 -20 -2 -19 -15 1 -10 -3 -16 -10 -14 -6 2 -10 14
-8 25 2 17 -2 22 -17 22 -23 0 -26 -12 -11 -40 7 -14 6 -20 -8 -25 -16 -6 -16
-7 2 -21 19 -13 19 -14 -8 -14 -20 0 -29 -6 -33 -21 -3 -11 -11 -18 -19 -15
-7 3 -16 1 -20 -5 -4 -6 -11 -6 -20 2 -12 10 -13 9 -8 -6 5 -12 4 -16 -3 -12
-17 11 -40 -2 -46 -24 -3 -11 -11 -19 -19 -18 -25 4 -67 -13 -62 -26 3 -7 -4
-15 -15 -18 -13 -3 -21 0 -21 7 0 7 -14 12 -35 12 -33 0 -35 -2 -35 -31 0 -29
-2 -31 -30 -27 -65 9 -101 -18 -63 -49 15 -12 16 -12 10 4 -8 21 6 22 23 2 10
-12 9 -15 -4 -16 -9 -1 -21 -2 -27 -3 -6 0 -17 -10 -26 -21 -13 -19 -14 -18
-8 16 7 38 1 43 -72 64 -31 9 -31 -26 0 -49 15 -12 18 -18 10 -22 -19 -8 -16
-31 9 -54 12 -11 18 -23 15 -27 -4 -4 -13 -1 -19 5 -18 18 -24 15 -43 -27 -10
-22 -24 -42 -31 -45 -8 -3 -14 -12 -14 -20 0 -8 -11 -23 -25 -34 -14 -11 -25
-29 -25 -41 0 -15 -6 -21 -21 -21 -18 0 -20 -4 -15 -25 7 -28 7 -29 -27 -16
-18 7 -30 6 -43 -4 -11 -8 -16 -15 -11 -15 4 0 -2 -9 -13 -20 -13 -13 -20 -33
-20 -61 0 -22 -4 -38 -9 -35 -5 3 -16 -5 -25 -19 -12 -17 -13 -25 -4 -25 9 0
9 -3 0 -12 -7 -7 -12 -24 -12 -39 0 -15 -5 -31 -11 -34 -19 -12 -31 -58 -18
-66 9 -5 0 -32 -31 -96 -24 -48 -51 -100 -62 -115 -10 -14 -18 -36 -18 -48 0
-12 -9 -33 -20 -48 -14 -17 -17 -29 -10 -36 16 -16 12 -26 -9 -26 -26 0 -54
-29 -46 -48 3 -8 0 -21 -7 -29 -10 -13 -9 -15 7 -11 11 2 19 10 17 16 -1 7 2
12 7 12 5 0 11 -12 13 -27 2 -16 8 -27 16 -25 9 1 8 -5 -4 -23 -22 -34 -8 -50
30 -35 23 9 26 13 16 25 -7 8 -8 15 -4 15 5 0 15 -9 22 -20 7 -11 19 -20 27
-20 10 0 15 -10 15 -29 0 -35 6 -40 54 -43 23 -2 36 -8 36 -17 0 -10 -9 -12
-35 -8 -19 3 -35 2 -35 -4 0 -5 3 -8 8 -8 23 4 30 -6 37 -48 3 -27 6 -64 6
-83 -1 -24 2 -31 8 -21 5 7 14 10 20 7 8 -5 7 -12 -4 -22 -8 -9 -15 -19 -15
-24 0 -13 28 -20 33 -7 2 7 2 1 0 -12 -3 -17 0 -22 11 -18 8 3 17 -1 20 -9 4
-11 0 -13 -19 -8 -22 5 -25 3 -25 -22 1 -25 2 -26 11 -11 11 18 39 24 39 7 0
-5 -7 -10 -15 -10 -14 0 -20 -17 -16 -47 1 -7 -3 -13 -10 -13 -15 0 -5 -80 12
-90 6 -4 8 -13 5 -19 -4 -6 -11 -9 -15 -7 -4 3 -13 1 -21 -4 -12 -7 -11 -12 6
-27 12 -10 23 -33 26 -51 4 -27 0 -37 -20 -53 l-26 -20 22 -15 c18 -13 21 -23
18 -60 -4 -47 11 -125 26 -135 4 -3 4 -30 -2 -60 -12 -63 -5 -110 15 -103 21
9 37 -34 36 -94 -1 -15 6 -26 17 -29 14 -3 17 -12 14 -33 -2 -15 1 -31 7 -34
6 -4 11 -18 11 -31 0 -12 7 -25 15 -29 20 -7 19 -36 -1 -36 -11 0 -15 -6 -11
-20 3 -12 -1 -23 -10 -29 -20 -11 -8 -31 18 -31 23 0 25 -13 4 -30 -19 -16
-19 -51 0 -76 15 -19 15 -19 34 4 11 12 26 22 35 22 8 0 18 5 21 11 11 16 47
-22 41 -44 -3 -11 2 -20 12 -24 28 -10 52 -46 40 -60 -7 -9 -7 -17 1 -26 7
-10 7 -17 0 -24 -16 -16 -1 -35 22 -28 18 6 19 3 13 -33 -5 -32 -2 -45 14 -62
17 -19 21 -20 35 -6 8 9 18 21 20 28 4 9 10 8 21 -6 9 -11 24 -20 33 -21 10 0
34 -9 53 -19 20 -10 76 -22 130 -27 170 -16 266 -58 332 -144 33 -43 71 -61
103 -49 8 4 15 1 15 -5 0 -6 9 -11 20 -11 11 0 20 5 20 10 0 6 5 10 11 10 5 0
8 -4 4 -9 -8 -14 28 -31 63 -31 16 0 32 -3 36 -7 4 -4 23 -8 43 -10 20 -1 39
-6 42 -11 10 -16 68 -24 105 -13 26 7 46 6 74 -3 101 -35 103 -36 127 -20 44
28 115 4 191 -65 25 -23 50 -39 55 -36 5 4 6 0 4 -7 -4 -10 5 -15 31 -16 20
-2 39 -3 43 -4 3 -1 13 1 21 5 8 3 29 8 45 10 45 8 149 38 160 47 24 20 139
50 190 50 53 0 55 1 45 20 -12 23 -6 40 16 40 8 0 14 6 14 13 0 7 14 12 36 13
20 0 39 6 44 13 6 11 8 11 12 0 3 -8 8 28 12 79 8 110 12 121 40 127 82 17
314 11 334 -10 4 -4 6 -60 5 -125 l-3 -118 63 -7 c47 -5 73 -3 101 9 21 9 50
16 65 16 38 1 119 24 133 38 7 7 18 12 25 12 7 0 13 4 13 9 0 5 12 11 28 14
15 3 45 22 66 42 38 35 40 38 42 106 1 39 7 76 13 82 6 6 11 19 11 29 0 10 4
18 9 18 5 0 13 10 16 23 4 12 18 36 31 54 20 26 24 44 24 98 0 62 3 69 37 110
20 24 40 42 44 40 3 -3 12 9 19 25 8 18 20 30 31 30 11 0 19 4 19 9 0 6 22 31
49 58 50 50 54 58 75 183 16 90 24 112 40 103 6 -3 2 4 -8 16 -15 16 -19 34
-17 66 2 36 -1 45 -14 45 -13 0 -14 4 -4 21 6 12 20 24 30 26 19 5 24 19 21
56 -3 29 36 77 63 77 15 0 25 7 28 21 5 18 9 19 27 9 29 -16 48 -6 52 26 l3
27 12 -33 c10 -27 10 -31 -3 -26 -24 9 -16 -13 21 -57 31 -37 40 -42 78 -42
27 0 42 4 41 13 -1 6 -2 26 -2 42 -1 17 -11 39 -22 50 -11 11 -20 23 -20 28
-1 15 -46 60 -76 75 -44 22 -52 36 -59 95 -7 58 2 103 15 82 12 -19 48 22 48
54 0 14 5 39 12 56 11 26 17 30 52 30 51 0 47 18 -9 44 -45 21 -53 37 -53 104
0 35 -3 42 -20 42 -13 0 -24 10 -31 27 -5 15 -19 33 -30 41 -11 8 -24 25 -29
38 -5 13 -16 24 -25 24 -8 0 -15 6 -15 13 -1 6 -14 28 -30 47 -17 19 -30 46
-30 61 0 14 -11 43 -25 63 -26 38 -31 61 -17 70 4 2 9 20 10 38 2 26 -3 35
-20 43 -19 8 -24 19 -26 59 -4 54 5 66 51 66 17 0 27 5 27 15 0 8 -8 15 -18
15 -46 0 -52 141 -6 162 12 6 25 18 28 27 3 9 17 34 30 56 68 110 80 194 34
239 -13 13 -31 36 -42 51 -13 19 -21 24 -26 15 -11 -19 -41 -4 -33 16 5 13 0
15 -23 13 -16 -1 -38 1 -49 5 -28 10 -87 93 -73 102 7 5 8 2 4 -7 -4 -8 0 -5
8 6 9 11 14 25 12 31 -3 7 6 15 20 18 46 12 14 28 -48 24 -52 -3 -62 0 -72 17
-6 11 -19 28 -30 37 -10 10 -16 24 -13 32 4 9 0 22 -8 30 -8 7 -16 24 -19 37
-3 13 -7 36 -11 51 -5 28 -54 58 -94 58 -24 1 -54 27 -49 42 8 20 4 33 -10 33
-7 0 -27 14 -45 31 -36 36 -68 44 -184 51 -46 2 -83 9 -83 14 0 5 -16 9 -35 9
-24 0 -35 5 -35 15 0 8 -4 16 -10 16 -22 3 -26 5 -50 23 -16 12 -21 20 -12 23
17 7 15 23 -3 23 -8 0 -15 5 -15 10 0 6 8 10 19 10 12 0 20 9 23 25 6 30 -5
39 -38 31 -19 -5 -24 -3 -24 14 0 16 -7 20 -30 20 -16 0 -30 -4 -30 -8 0 -14
23 -32 41 -32 23 0 43 -26 34 -47 -6 -16 -9 -14 -21 10 -17 31 -26 33 -44 12
-7 -8 -17 -15 -23 -15 -7 0 -7 4 1 12 7 7 12 21 12 31 0 18 -5 19 -52 14 -29
-3 -59 -7 -67 -9 -8 -2 -18 10 -24 27 -13 40 -13 40 -43 25 -21 -12 -27 -12
-33 -1 -7 11 -18 10 -60 -4 -31 -10 -59 -14 -73 -9 -13 4 -52 9 -88 10 -105 4
-122 6 -111 14 6 3 10 16 8 28 -4 26 -17 41 -17 20 0 -9 -7 -18 -15 -21 -11
-5 -13 0 -8 23 5 28 -5 39 -20 23z m23 -83 c0 -5 -2 -10 -4 -10 -3 0 -8 5 -11
10 -3 6 -1 10 4 10 6 0 11 -4 11 -10z m-380 -46 c0 -8 -5 -12 -10 -9 -6 4 -8
11 -5 16 9 14 15 11 15 -7z m950 -18 c0 -2 -13 -6 -30 -8 -16 -3 -30 -1 -30 4
0 4 14 8 30 8 17 0 30 -2 30 -4z m-1917 -403 c-7 -2 -19 -2 -25 0 -7 3 -2 5
12 5 14 0 19 -2 13 -5z m1245 -54 c68 -50 104 -107 162 -256 6 -13 21 -24 42
-28 18 -3 78 -20 133 -37 442 -134 806 -512 935 -972 107 -383 41 -822 -174
-1146 -69 -106 -102 -146 -191 -236 -105 -106 -214 -189 -330 -250 -65 -35
-86 -52 -96 -77 -14 -33 -131 -157 -148 -157 -6 0 6 24 25 53 19 28 49 88 67
132 29 72 32 90 32 180 0 147 -25 216 -197 545 -88 168 -98 210 -98 406 0 138
23 313 50 379 28 70 44 105 46 102 2 -1 -3 -45 -11 -97 -17 -108 -19 -220 -6
-220 13 0 88 81 123 132 66 99 98 211 98 347 0 136 -54 272 -121 307 -39 20
-113 17 -189 -7 -85 -26 -131 -19 -165 25 -14 18 -25 45 -25 59 0 30 -11 33
-43 13 -12 -8 -94 -46 -182 -85 -275 -121 -404 -194 -451 -257 -25 -32 -29
-46 -27 -95 1 -58 24 -121 171 -475 72 -174 106 -314 107 -439 0 -100 0 -101
-34 -145 -19 -25 -52 -64 -73 -87 -54 -61 -121 -168 -148 -238 -20 -50 -24
-79 -23 -170 0 -111 10 -161 58 -269 l17 -39 -29 18 c-41 26 -114 106 -148
163 -16 28 -42 58 -56 66 -61 36 -192 151 -256 224 -107 123 -109 126 -166
220 -273 453 -274 995 -3 1467 127 221 360 434 599 549 77 37 79 39 112 108
45 92 110 167 176 203 47 26 66 29 149 32 63 1 87 -1 70 -6 -14 -5 -37 -9 -52
-10 -15 -1 -53 -12 -84 -26 -135 -60 -203 -157 -205 -295 -1 -96 -18 -191 -39
-220 -11 -15 -55 -50 -97 -76 -91 -56 -90 -56 -154 -113 -93 -83 -137 -202
-124 -340 3 -41 9 -79 12 -85 4 -5 13 21 20 60 35 172 126 258 411 388 157 72
289 140 359 186 81 53 122 138 123 255 1 41 3 47 12 31 16 -29 22 -136 9 -183
-16 -58 -90 -129 -183 -175 -40 -20 -175 -86 -300 -147 -194 -95 -235 -119
-286 -169 -75 -71 -104 -127 -110 -212 -4 -70 17 -154 59 -224 21 -37 47 -51
34 -18 -4 9 -10 51 -12 92 -8 129 44 227 168 310 32 22 60 40 63 40 3 0 58 25
123 56 65 31 147 70 183 86 216 101 351 210 384 308 57 171 14 379 -98 478
-38 33 -60 40 -72 21 -9 -15 -24 9 -24 38 0 42 43 43 98 2z m-1313 11 c-3 -5
-12 -10 -18 -10 -7 0 -6 4 3 10 19 12 23 12 15 0z m-355 -181 c0 -5 -10 -9
-21 -9 -18 0 -19 2 -9 15 12 15 30 12 30 -6z m-200 -114 c0 -8 -2 -15 -4 -15
-2 0 -6 7 -10 15 -3 8 -1 15 4 15 6 0 10 -7 10 -15z m-221 -336 c-19 -12 -39
-11 -39 2 0 5 4 8 9 5 5 -3 15 1 22 10 10 12 14 13 17 4 3 -7 -2 -16 -9 -21z
m3731 -299 c0 -5 -2 -10 -4 -10 -3 0 -8 5 -11 10 -3 6 -1 10 4 10 6 0 11 -4
11 -10z m-1760 -146 c0 -6 -17 -16 -38 -22 -21 -6 -53 -26 -71 -44 -106 -103
-105 -236 5 -567 102 -307 105 -318 111 -441 3 -63 1 -130 -3 -147 -7 -26 -9
-12 -10 60 -2 117 -26 212 -104 407 -33 82 -76 205 -97 272 -31 104 -37 138
-37 218 0 83 4 102 27 150 32 67 83 121 140 149 l42 21 17 -23 c10 -12 18 -27
18 -33z m-2189 -230 c9 -11 2 -24 -12 -24 -5 0 -6 6 -3 14 3 8 1 17 -5 21 -6
3 -11 18 -10 33 l1 27 10 -30 c6 -16 15 -35 19 -41z m-43 -1 c-2 -9 -9 -18
-16 -19 -7 -1 -8 0 -3 2 6 3 7 12 4 20 -3 8 0 14 7 14 6 0 10 -8 8 -17z m86
-55 c7 -5 5 -8 -6 -8 -13 0 -18 7 -17 28 1 21 2 22 6 7 3 -11 10 -23 17 -27z
m36 -71 c9 -3 3 -6 -12 -6 -20 -1 -28 4 -28 15 0 12 4 14 13 7 6 -6 19 -13 27
-16z m-35 -55 c-3 -3 -11 0 -18 7 -9 10 -8 11 6 5 10 -3 15 -9 12 -12z m115
-1013 c0 -11 -4 -17 -10 -14 -5 3 -10 15 -10 26 0 11 5 17 10 14 6 -3 10 -15
10 -26z m1925 -78 c-33 -66 -63 -178 -71 -265 -8 -85 13 -171 53 -224 36 -48
23 -49 -25 0 -87 88 -110 209 -64 338 15 42 49 109 62 120 3 3 18 22 33 43 38
50 42 47 12 -12z"/>
<path d="M5520 7570 c0 -13 11 -13 30 0 12 8 11 10 -7 10 -13 0 -23 -4 -23
-10z"/>
<path d="M4802 7558 c-7 -7 -12 -16 -12 -21 0 -10 30 -36 43 -37 9 0 9 32 1
54 -7 19 -16 20 -32 4z"/>
<path d="M3340 7550 c0 -5 7 -10 16 -10 8 0 12 5 9 10 -3 6 -10 10 -16 10 -5
0 -9 -4 -9 -10z"/>
<path d="M4640 7545 c0 -8 9 -15 20 -15 11 0 20 7 20 15 0 8 -9 15 -20 15 -11
0 -20 -7 -20 -15z"/>
<path d="M6495 7541 c-6 -11 9 -23 19 -14 9 9 7 23 -3 23 -6 0 -12 -4 -16 -9z"/>
<path d="M5000 7526 c0 -9 7 -16 16 -16 17 0 14 22 -4 28 -7 2 -12 -3 -12 -12z"/>
<path d="M5520 7524 c0 -8 5 -12 10 -9 6 4 8 11 5 16 -9 14 -15 11 -15 -7z"/>
<path d="M4055 7520 c3 -5 10 -10 16 -10 5 0 9 5 9 10 0 6 -7 10 -16 10 -8 0
-12 -4 -9 -10z"/>
<path d="M4380 7510 c0 -5 5 -10 10 -10 6 0 10 5 10 10 0 6 -4 10 -10 10 -5 0
-10 -4 -10 -10z"/>
<path d="M4220 7506 c0 -2 7 -6 15 -10 8 -3 15 -1 15 4 0 6 -7 10 -15 10 -8 0
-15 -2 -15 -4z"/>
<path d="M4006 7482 c-3 -6 -1 -14 5 -17 15 -10 25 3 12 16 -7 7 -13 7 -17 1z"/>
<path d="M5462 7483 c-6 -3 -10 -9 -6 -14 7 -12 44 -12 44 0 0 11 -21 19 -38
14z"/>
<path d="M6502 7470 c0 -14 2 -19 5 -12 2 6 2 18 0 25 -3 6 -5 1 -5 -13z"/>
<path d="M3600 7470 c0 -5 10 -10 23 -10 18 0 19 2 7 10 -19 13 -30 13 -30 0z"/>
<path d="M3810 7465 c0 -8 7 -15 15 -15 8 0 15 7 15 15 0 8 -7 15 -15 15 -8 0
-15 -7 -15 -15z"/>
<path d="M5620 7464 c0 -8 5 -12 10 -9 6 3 10 10 10 16 0 5 -4 9 -10 9 -5 0
-10 -7 -10 -16z"/>
<path d="M3925 7461 c-3 -5 -1 -12 5 -16 5 -3 10 -17 10 -31 0 -29 15 -31 30
-4 9 16 8 22 -5 26 -8 3 -15 12 -15 20 0 16 -16 19 -25 5z"/>
<path d="M4192 7448 c-7 -7 -12 -18 -12 -25 0 -6 -7 -16 -16 -21 -26 -14 -9
-29 36 -30 39 -2 40 -1 40 31 0 30 -14 57 -30 57 -3 0 -11 -5 -18 -12z"/>
<path d="M3490 7440 c0 -5 6 -10 14 -10 8 0 17 -7 20 -16 3 -8 10 -13 16 -9 5
3 1 14 -10 25 -22 22 -40 26 -40 10z"/>
<path d="M3444 7425 c-4 -8 -13 -15 -21 -15 -8 0 -12 -4 -9 -9 7 -10 56 0 56
12 0 23 -1 27 -10 27 -6 0 -13 -7 -16 -15z"/>
<path d="M4065 7410 c4 -6 11 -8 16 -5 14 9 11 15 -7 15 -8 0 -12 -5 -9 -10z"/>
<path d="M4024 7376 c-4 -15 -12 -23 -26 -22 -13 1 -24 -8 -29 -22 -7 -19 -6
-23 9 -20 9 2 16 11 14 19 -2 9 0 11 6 4 6 -5 12 -19 14 -30 3 -16 11 -20 43
-20 35 0 41 4 50 29 8 24 7 31 -9 40 -11 6 -26 19 -35 29 -21 23 -29 22 -37
-7z"/>
<path d="M3760 7376 c0 -9 5 -16 10 -16 6 0 10 4 10 9 0 6 -4 13 -10 16 -5 3
-10 -1 -10 -9z"/>
<path d="M4080 7386 c0 -2 7 -6 15 -10 8 -3 15 -1 15 4 0 6 -7 10 -15 10 -8 0
-15 -2 -15 -4z"/>
<path d="M4167 7324 c-13 -13 -7 -24 14 -24 11 0 19 5 17 12 -5 14 -22 21 -31
12z"/>
<path d="M3843 7285 c-3 -9 -3 -18 -1 -21 9 -9 38 8 38 22 0 19 -29 18 -37 -1z"/>
<path d="M4007 7250 c3 -12 12 -20 22 -18 24 5 19 33 -6 36 -17 3 -20 -1 -16
-18z"/>
<path d="M3962 7243 c4 -21 33 -25 33 -3 0 8 -8 16 -18 18 -14 3 -18 -1 -15
-15z"/>
<path d="M2887 7201 c-2 -3 -3 -17 -3 -31 1 -18 7 -26 24 -28 14 -2 22 2 22
11 0 9 3 22 6 30 3 10 -3 16 -21 19 -14 3 -27 3 -28 -1z"/>
<path d="M6037 7204 c-8 -8 1 -24 14 -24 5 0 9 7 9 15 0 15 -12 20 -23 9z"/>
<path d="M2510 7190 c0 -5 5 -10 10 -10 6 0 10 5 10 10 0 6 -4 10 -10 10 -5 0
-10 -4 -10 -10z"/>
<path d="M2580 7175 c0 -8 5 -15 10 -15 6 0 10 7 10 15 0 8 -4 15 -10 15 -5 0
-10 -7 -10 -15z"/>
<path d="M3190 7180 c0 -5 4 -10 9 -10 6 0 13 5 16 10 3 6 -1 10 -9 10 -9 0
-16 -4 -16 -10z"/>
<path d="M3206 7151 c-17 -18 -16 -20 5 -26 14 -5 25 -2 30 6 24 38 -5 53 -35
20z"/>
<path d="M3306 7135 c-3 -9 0 -15 9 -15 8 0 15 7 15 15 0 8 -4 15 -9 15 -5 0
-11 -7 -15 -15z"/>
<path d="M2870 7114 c0 -8 11 -14 25 -14 14 0 25 4 25 9 0 5 -11 11 -25 13
-17 4 -25 1 -25 -8z"/>
<path d="M3639 7108 c-8 -14 -6 -18 9 -18 10 0 22 3 26 7 4 4 16 8 26 8 34 0
16 20 -18 20 -22 1 -37 -5 -43 -17z"/>
<path d="M3354 7106 c-7 -19 3 -36 22 -36 10 0 14 8 12 22 -4 26 -26 36 -34
14z"/>
<path d="M3320 7064 c0 -8 5 -12 10 -9 6 4 8 11 5 16 -9 14 -15 11 -15 -7z"/>
<path d="M3330 7010 c0 -5 5 -10 10 -10 6 0 10 5 10 10 0 6 -4 10 -10 10 -5 0
-10 -4 -10 -10z"/>
<path d="M3160 7000 c0 -5 5 -10 10 -10 6 0 10 5 10 10 0 6 -4 10 -10 10 -5 0
-10 -4 -10 -10z"/>
<path d="M3284 6999 c-10 -17 13 -36 27 -22 12 12 4 33 -11 33 -5 0 -12 -5
-16 -11z"/>
<path d="M3123 6955 c-37 -16 -36 -45 1 -45 32 0 61 24 53 44 -8 19 -12 19
-54 1z"/>
<path d="M3190 6954 c0 -9 7 -14 17 -12 25 5 28 28 4 28 -12 0 -21 -6 -21 -16z"/>
<path d="M3356 6952 c-2 -4 4 -8 14 -9 11 -1 22 2 25 8 4 5 -3 9 -14 9 -11 0
-22 -4 -25 -8z"/>
<path d="M3260 6940 c-12 -7 -12 -12 -2 -22 9 -9 15 -9 24 0 16 16 -2 34 -22
22z"/>
<path d="M2975 6900 c3 -5 8 -10 11 -10 2 0 4 5 4 10 0 6 -5 10 -11 10 -5 0
-7 -4 -4 -10z"/>
<path d="M3232 6889 c2 -6 8 -10 13 -10 5 0 11 4 13 10 2 6 -4 11 -13 11 -9 0
-15 -5 -13 -11z"/>
<path d="M2756 6802 c-3 -6 -1 -14 5 -17 15 -10 25 3 12 16 -7 7 -13 7 -17 1z"/>
<path d="M2283 6767 c-45 -11 -58 -27 -23 -27 11 0 20 -4 20 -10 0 -5 -9 -10
-20 -10 -11 0 -23 -7 -27 -15 -8 -22 4 -30 20 -16 8 6 21 9 29 6 19 -8 34 12
40 53 3 17 4 31 4 31 -1 -1 -20 -7 -43 -12z"/>
<path d="M2575 6721 c-3 -5 -1 -12 5 -16 5 -3 10 1 10 9 0 18 -6 21 -15 7z"/>
<path d="M2670 6720 c0 -5 5 -10 10 -10 6 0 10 5 10 10 0 6 -4 10 -10 10 -5 0
-10 -4 -10 -10z"/>
<path d="M2860 6684 c0 -9 5 -14 12 -12 18 6 21 28 4 28 -9 0 -16 -7 -16 -16z"/>
<path d="M2520 6580 c0 -5 5 -10 10 -10 6 0 10 5 10 10 0 6 -4 10 -10 10 -5 0
-10 -4 -10 -10z"/>
<path d="M2335 6430 c-3 -5 -1 -10 4 -10 6 0 11 5 11 10 0 6 -2 10 -4 10 -3 0
-8 -4 -11 -10z"/>
<path d="M2252 6289 c2 -7 10 -15 17 -17 8 -3 12 1 9 9 -2 7 -10 15 -17 17 -8
3 -12 -1 -9 -9z"/>
<path d="M2354 6259 c-11 -13 -14 -23 -8 -27 6 -4 13 -14 16 -23 8 -20 58 -31
75 -17 7 6 22 8 33 5 16 -4 23 1 31 19 12 33 12 34 -6 34 -8 0 -15 -4 -15 -10
0 -19 -28 -10 -44 15 -20 31 -56 33 -82 4z"/>
<path d="M6675 6230 c-3 -5 -24 -10 -46 -10 -38 0 -39 -1 -39 -35 0 -52 24
-72 90 -76 l55 -4 -2 35 c-3 67 -14 100 -34 100 -10 0 -21 -4 -24 -10z"/>
<path d="M2520 6180 c0 -5 5 -10 10 -10 6 0 10 5 10 10 0 6 -4 10 -10 10 -5 0
-10 -4 -10 -10z"/>
<path d="M1831 6156 c-7 -8 -26 -18 -42 -21 -40 -9 -38 -29 2 -21 22 4 29 2
27 -7 -3 -6 -17 -13 -31 -15 -29 -4 -32 -9 -18 -31 8 -12 15 -12 45 3 33 16
36 20 36 61 0 49 -2 52 -19 31z"/>
<path d="M1935 6140 c3 -5 10 -10 16 -10 5 0 9 5 9 10 0 6 -7 10 -16 10 -8 0
-12 -4 -9 -10z"/>
<path d="M2460 6085 c-9 -11 -16 -13 -24 -5 -16 16 -26 12 -26 -11 0 -16 4
-20 18 -14 9 3 30 9 45 12 15 3 26 10 24 16 -6 18 -23 19 -37 2z"/>
<path d="M2205 6081 c-3 -5 -1 -12 5 -16 12 -7 30 2 30 16 0 12 -27 12 -35 0z"/>
<path d="M1888 6063 c7 -3 16 -2 19 1 4 3 -2 6 -13 5 -11 0 -14 -3 -6 -6z"/>
<path d="M2080 6035 c0 -8 5 -15 10 -15 6 0 10 7 10 15 0 8 -4 15 -10 15 -5 0
-10 -7 -10 -15z"/>
<path d="M2394 6026 c-3 -8 -3 -19 0 -25 4 -5 -2 -14 -11 -20 -16 -9 -15 -10
8 -11 15 0 29 7 33 15 3 8 17 15 31 15 20 0 26 4 23 18 -4 23 -75 30 -84 8z"/>
<path d="M2475 5910 c-3 -5 1 -10 10 -10 9 0 13 5 10 10 -3 6 -8 10 -10 10 -2
0 -7 -4 -10 -10z"/>
<path d="M1950 5850 c0 -5 5 -10 10 -10 6 0 10 5 10 10 0 6 -4 10 -10 10 -5 0
-10 -4 -10 -10z"/>
<path d="M2362 5799 c2 -6 8 -10 13 -10 5 0 11 4 13 10 2 6 -4 11 -13 11 -9 0
-15 -5 -13 -11z"/>
<path d="M2346 5771 c-4 -5 -2 -12 3 -15 5 -4 12 -2 15 3 4 5 2 12 -3 15 -5 4
-12 2 -15 -3z"/>
<path d="M1620 5740 c0 -5 5 -10 11 -10 5 0 7 5 4 10 -3 6 -8 10 -11 10 -2 0
-4 -4 -4 -10z"/>
<path d="M2022 5707 c-25 -27 -28 -37 -8 -37 8 0 16 -6 19 -14 7 -17 41 -15
74 2 12 7 29 12 37 12 10 0 16 9 16 25 0 28 -3 30 -29 13 -15 -9 -24 -8 -45 5
-33 22 -38 21 -64 -6z"/>
<path d="M2310 5670 c0 -5 4 -10 9 -10 6 0 13 5 16 10 3 6 -1 10 -9 10 -9 0
-16 -4 -16 -10z"/>
<path d="M2156 5564 c-9 -24 -7 -29 6 -16 7 7 20 12 30 12 10 0 18 5 18 10 0
16 -47 11 -54 -6z"/>
<path d="M2116 5531 c4 -20 3 -31 -5 -31 -9 0 -9 -5 0 -21 9 -17 8 -23 -2 -30
-8 -5 -9 -9 -3 -9 6 0 22 8 35 18 13 10 32 22 42 25 28 10 14 32 -19 32 -22 0
-29 5 -29 19 0 11 -6 21 -12 23 -9 3 -11 -4 -7 -26z"/>
<path d="M1980 5509 c0 -5 5 -7 10 -4 6 3 10 8 10 11 0 2 -4 4 -10 4 -5 0 -10
-5 -10 -11z"/>
<path d="M2320 5509 c0 -4 6 -9 13 -12 9 -3 9 -7 -2 -20 -12 -15 -11 -17 8
-17 12 0 21 -6 21 -15 0 -8 7 -15 15 -15 8 0 15 7 15 15 0 8 -7 15 -15 15 -19
0 -19 14 0 33 13 13 10 15 -20 19 -19 2 -35 1 -35 -3z"/>
<path d="M1920 5500 c0 -5 7 -10 15 -10 8 0 15 5 15 10 0 6 -7 10 -15 10 -8 0
-15 -4 -15 -10z"/>
<path d="M2390 5482 c0 -19 32 -51 45 -46 23 9 18 41 -7 48 -31 8 -38 7 -38
-2z"/>
<path d="M2215 5411 c-6 -11 9 -23 19 -14 9 9 7 23 -3 23 -6 0 -12 -4 -16 -9z"/>
<path d="M2533 5395 c-6 -18 1 -28 23 -31 10 -2 14 3 10 13 -3 8 -6 19 -6 24
0 15 -20 10 -27 -6z"/>
<path d="M2190 5160 c0 -5 5 -10 10 -10 6 0 10 5 10 10 0 6 -4 10 -10 10 -5 0
-10 -4 -10 -10z"/>
<path d="M2460 5066 c0 -8 5 -18 10 -21 6 -3 10 3 10 14 0 12 -4 21 -10 21 -5
0 -10 -6 -10 -14z"/>
<path d="M2170 5000 c0 -5 5 -10 10 -10 6 0 10 5 10 10 0 6 -4 10 -10 10 -5 0
-10 -4 -10 -10z"/>
<path d="M2510 5000 c0 -5 5 -10 10 -10 6 0 10 5 10 10 0 6 -4 10 -10 10 -5 0
-10 -4 -10 -10z"/>
<path d="M6905 4770 c-8 -13 13 -40 30 -40 18 0 26 25 12 39 -14 14 -34 14
-42 1z"/>
<path d="M2625 4670 c3 -5 8 -10 11 -10 2 0 4 5 4 10 0 6 -5 10 -11 10 -5 0
-7 -4 -4 -10z"/>
<path d="M6790 4630 c0 -5 5 -10 11 -10 5 0 7 5 4 10 -3 6 -8 10 -11 10 -2 0
-4 -4 -4 -10z"/>
<path d="M6755 4611 c-3 -5 -1 -12 5 -16 5 -3 10 1 10 9 0 18 -6 21 -15 7z"/>
<path d="M2535 4390 c4 -6 11 -8 16 -5 14 9 11 15 -7 15 -8 0 -12 -5 -9 -10z"/>
<path d="M2644 4255 c-4 -9 -4 -18 -2 -21 9 -8 39 8 35 19 -6 18 -27 20 -33 2z"/>
<path d="M2650 4180 c0 -5 5 -10 10 -10 6 0 10 5 10 10 0 6 -4 10 -10 10 -5 0
-10 -4 -10 -10z"/>
<path d="M2560 4110 c0 -5 5 -10 11 -10 5 0 7 5 4 10 -3 6 -8 10 -11 10 -2 0
-4 -4 -4 -10z"/>
<path d="M2676 4081 c-4 -7 -5 -15 -2 -18 9 -9 19 4 14 18 -4 11 -6 11 -12 0z"/>
<path d="M2670 4030 c0 -5 7 -10 15 -10 8 0 15 5 15 10 0 6 -7 10 -15 10 -8 0
-15 -4 -15 -10z"/>
<path d="M2665 3990 c-3 -5 1 -10 10 -10 9 0 13 5 10 10 -3 6 -8 10 -10 10 -2
0 -7 -4 -10 -10z"/>
<path d="M2740 3935 c0 -8 5 -15 10 -15 6 0 10 7 10 15 0 8 -4 15 -10 15 -5 0
-10 -7 -10 -15z"/>
<path d="M2813 3935 c-3 -9 -3 -18 0 -22 10 -10 37 6 37 22 0 20 -29 20 -37 0z"/>
<path d="M2918 3903 c7 -3 16 -2 19 1 4 3 -2 6 -13 5 -11 0 -14 -3 -6 -6z"/>
<path d="M2845 3869 c-4 -6 -5 -13 -2 -16 7 -7 27 6 27 18 0 12 -17 12 -25 -2z"/>
<path d="M2925 3760 c-3 -5 -1 -10 4 -10 6 0 11 5 11 10 0 6 -2 10 -4 10 -3 0
-8 -4 -11 -10z"/>
<path d="M2915 3690 c-3 -5 1 -10 9 -10 9 0 16 5 16 10 0 6 -4 10 -9 10 -6 0
-13 -4 -16 -10z"/>
<path d="M2785 3680 c3 -5 10 -10 16 -10 5 0 9 5 9 10 0 6 -7 10 -16 10 -8 0
-12 -4 -9 -10z"/>
<path d="M2982 3671 c-11 -7 -11 -9 1 -14 16 -6 27 0 27 15 0 10 -11 10 -28
-1z"/>
<path d="M2795 3588 c-3 -7 -4 -323 -3 -703 l3 -690 290 0 c272 0 294 1 361
22 117 37 202 113 239 214 10 25 19 89 22 149 4 90 2 113 -15 159 -39 100 -92
153 -182 184 l-45 15 35 14 c118 50 181 179 166 340 -14 144 -88 245 -209 285
-70 23 -654 33 -662 11z m478 -209 c86 -24 129 -128 97 -238 -22 -77 -82 -108
-217 -113 l-73 -3 0 182 0 183 78 0 c42 0 94 -5 115 -11z m41 -579 c64 -31 90
-78 95 -171 2 -65 -1 -86 -19 -124 -33 -67 -78 -88 -207 -93 l-103 -4 0 204
c0 113 3 208 6 211 15 15 187 -3 228 -23z"/>
<path d="M5280 3384 l0 -216 -41 37 c-61 55 -112 75 -195 75 -163 0 -247 -75
-300 -267 -31 -115 -30 -432 3 -595 5 -27 4 -28 -30 -28 -47 0 -94 -41 -130
-112 -69 -138 -118 -487 -133 -958 l-7 -215 -41 -78 c-55 -105 -95 -147 -141
-147 -30 0 -40 6 -69 48 -31 42 -61 116 -59 146 1 6 13 43 28 81 24 65 42 116
64 190 19 63 51 204 67 294 23 136 34 388 19 425 -11 25 -14 27 -22 12 -5 -10
-14 -17 -19 -17 -5 1 -10 -18 -11 -41 -11 -200 -42 -411 -82 -568 -16 -65 -63
-205 -71 -213 -22 -24 -54 422 -44 631 3 70 6 138 7 152 2 21 -2 25 -26 25
-16 1 -32 7 -37 14 -6 10 -21 12 -56 7 -55 -7 -49 -3 -58 -38 -6 -24 -3 -28
16 -28 13 0 40 5 62 9 l39 10 -7 -72 c-24 -270 -16 -529 24 -760 12 -66 16
-115 10 -125 -4 -10 -22 -47 -39 -83 -17 -36 -40 -74 -51 -84 -19 -17 -22 -17
-36 -3 -19 18 -20 54 -4 137 15 85 7 129 -26 137 -14 4 -30 2 -35 -3 -5 -5
-14 -49 -20 -99 -14 -117 -41 -178 -99 -217 -61 -42 -110 -10 -110 72 0 135
127 281 244 281 36 0 56 15 56 42 0 60 -137 42 -229 -31 -81 -64 -151 -205
-151 -303 0 -91 56 -158 133 -158 49 0 79 13 126 55 l40 36 30 -22 c55 -41
134 -4 187 87 14 24 28 44 30 44 2 0 10 -15 17 -32 8 -18 27 -48 43 -67 75
-89 183 -71 276 47 l26 33 7 -41 c6 -37 27 -70 43 -70 4 0 14 5 22 10 12 8 15
36 15 152 0 129 2 147 22 185 81 150 206 479 247 648 19 80 43 232 52 328 5
59 9 75 19 67 29 -24 104 -42 174 -41 87 0 162 31 199 81 31 42 42 38 42 -15
l0 -45 130 0 130 0 0 705 0 705 -135 0 -135 0 0 -216z m-64 -345 c40 -41 58
-134 57 -314 0 -260 -34 -345 -139 -345 -37 0 -51 6 -74 28 -43 44 -53 90 -57
285 -6 249 16 342 87 370 32 13 102 -1 126 -24z m-441 -739 c33 -64 13 -271
-49 -485 -53 -184 -162 -475 -187 -500 -11 -10 -7 129 12 422 24 388 86 593
179 593 23 0 33 -7 45 -30z m-786 -276 c2 -2 -10 -4 -27 -4 -18 0 -32 5 -32
10 0 9 47 4 59 -6z"/>
<path d="M4065 3261 c-132 -45 -203 -130 -242 -292 -14 -57 -17 -115 -17 -254
1 -240 23 -335 101 -432 42 -53 114 -97 143 -88 21 7 29 -10 8 -18 -10 -4 -10
-6 0 -6 7 -1 15 6 18 14 4 8 10 15 16 15 5 0 7 -4 3 -9 -9 -15 7 -19 85 -22
l75 -2 -2 29 c-1 16 1 21 4 12 7 -27 21 -21 28 12 7 30 -9 97 -27 115 -7 7 -8
2 -3 -14 5 -16 4 -21 -4 -17 -14 9 -14 -4 -1 -24 8 -12 10 -12 11 5 l0 20 8
-20 c8 -20 -7 -57 -20 -49 -4 2 -10 19 -13 38 -4 18 -15 41 -26 51 -17 16 -24
16 -43 6 -13 -7 -29 -25 -35 -39 -10 -22 -11 -23 -8 -4 2 12 -1 22 -7 22 -8 0
-7 4 1 12 18 18 14 32 -5 17 -15 -12 -16 -12 -8 1 21 38 28 42 39 21 8 -15 15
-18 26 -11 13 9 13 10 0 10 -18 0 -52 50 -71 105 -20 56 -20 450 0 518 27 92
99 134 170 100 75 -37 96 -132 88 -407 -5 -203 -18 -261 -68 -298 -18 -13 -25
-26 -20 -32 9 -12 35 -91 46 -140 6 -26 9 -28 42 -23 79 13 173 84 215 162 90
171 90 627 0 775 -25 40 -85 100 -117 117 -86 45 -292 58 -390 24z m-4 -1044
c-10 -9 -11 -8 -5 6 3 10 9 15 12 12 3 -3 0 -11 -7 -18z m46 1 c-3 -8 -6 -5
-6 6 -1 11 2 17 5 13 3 -3 4 -12 1 -19z"/>
<path d="M5616 3252 c-3 -5 27 -121 65 -258 122 -430 149 -526 174 -619 13
-49 31 -112 39 -138 9 -30 11 -58 6 -75 -25 -85 -62 -112 -154 -112 l-56 0 0
-101 0 -101 138 4 c117 4 144 8 185 27 90 44 149 164 216 441 25 101 104 410
152 590 5 19 13 53 18 75 6 22 23 90 39 152 16 62 27 115 24 118 -10 9 -261 5
-267 -5 -3 -5 -19 -80 -35 -167 -56 -303 -102 -538 -105 -541 -1 -2 -10 32
-19 75 -9 43 -21 96 -26 118 -5 22 -24 108 -41 190 -17 83 -41 191 -53 240
l-21 90 -137 3 c-75 1 -139 -1 -142 -6z"/>
<path d="M4073 2163 c-18 -6 -16 -43 1 -43 16 0 30 30 19 40 -4 4 -14 5 -20 3z"/>
<path d="M4287 2163 c-4 -3 -7 -11 -7 -17 0 -6 5 -5 12 2 6 6 9 14 7 17 -3 3
-9 2 -12 -2z"/>
<path d="M4305 2139 c-4 -6 -5 -12 -2 -15 2 -3 7 2 10 11 7 17 1 20 -8 4z"/>
<path d="M4032 2115 c0 -16 2 -22 5 -12 2 9 2 23 0 30 -3 6 -5 -1 -5 -18z"/>
<path d="M3838 2033 c7 -3 16 -2 19 1 4 3 -2 6 -13 5 -11 0 -14 -3 -6 -6z"/>
<path d="M3787 2004 c-14 -14 6 -24 46 -23 23 1 33 3 22 6 -11 3 -24 9 -29 14
-12 10 -30 12 -39 3z"/>
<path d="M3630 1986 c-19 -6 -36 -17 -37 -23 -4 -16 109 -11 115 5 2 7 -3 12
-12 12 -9 0 -16 5 -16 10 0 12 -4 12 -50 -4z"/>
<path d="M3730 1970 c0 -13 20 -13 40 0 12 8 9 10 -12 10 -16 0 -28 -4 -28
-10z"/>
<path d="M3457 1944 c-31 -17 -28 -34 6 -35 20 0 21 -1 3 -8 -26 -10 -62 -6
-59 7 1 5 -7 8 -18 5 -18 -5 -20 -11 -15 -44 3 -21 2 -40 -4 -44 -5 -3 -10
-15 -10 -26 0 -10 -6 -19 -14 -19 -8 0 -17 -7 -20 -16 -15 -39 -28 -542 -22
-849 9 -472 21 -575 71 -575 33 0 38 38 24 164 -10 90 -14 274 -14 716 0 327
4 607 8 622 7 26 28 36 93 43 11 2 41 12 65 24 l44 20 -33 1 c-19 0 -35 6 -38
15 -8 19 -31 19 -67 -1z m-80 -161 c-3 -10 -5 -4 -5 12 0 17 2 24 5 18 2 -7 2
-21 0 -30z"/>
<path d="M5385 1871 c-143 -36 -212 -176 -151 -306 28 -60 46 -77 109 -105
157 -70 343 91 298 258 -28 103 -155 178 -256 153z m-11 -141 c20 -7 26 -17
26 -38 0 -34 -16 -52 -47 -52 -19 0 -23 -5 -23 -30 0 -16 -4 -30 -10 -30 -6 0
-10 33 -10 80 0 88 5 93 64 70z m86 -26 c0 -35 1 -35 38 -32 20 2 38 9 38 16
1 6 2 22 4 35 4 44 16 -24 16 -85 -1 -65 -19 -84 -24 -25 -3 35 -5 37 -38 37
-32 0 -34 -2 -34 -35 0 -19 -4 -35 -10 -35 -6 0 -10 33 -10 80 0 47 4 80 10
80 6 0 10 -16 10 -36z"/>
<path d="M5330 1691 c0 -34 10 -44 35 -35 25 10 16 58 -12 62 -20 3 -23 -1
-23 -27z"/>
<path d="M3205 1850 c-11 -17 5 -32 21 -19 7 6 11 15 8 20 -7 12 -21 11 -29
-1z"/>
<path d="M3158 1829 c-10 -6 -18 -14 -18 -19 0 -14 37 -12 46 1 10 17 -9 29
-28 18z"/>
<path d="M3053 1783 c-14 -5 -18 -33 -5 -33 4 0 14 5 22 10 17 11 2 30 -17 23z"/>
<path d="M3115 1750 c-3 -5 1 -10 9 -10 8 0 18 5 21 10 3 6 -1 10 -9 10 -8 0
-18 -4 -21 -10z"/>
<path d="M4990 1536 c-7 -9 -13 -59 -15 -128 -2 -75 -10 -140 -24 -192 -32
-121 -27 -148 23 -124 21 9 31 26 46 77 10 36 21 75 23 86 5 29 83 -96 97
-156 15 -61 -4 -104 -60 -139 -43 -26 -53 -41 -44 -65 10 -24 65 -17 108 13
57 39 74 75 75 154 1 78 -15 122 -91 246 -44 72 -52 91 -57 153 -7 70 -17 89
-52 89 -9 0 -22 -6 -29 -14z"/>
<path d="M4788 1453 c-8 -10 -38 -65 -67 -123 -28 -58 -65 -123 -81 -145 -16
-22 -37 -54 -46 -72 -16 -30 -16 -33 9 -76 14 -24 63 -79 109 -122 190 -178
359 -265 546 -281 128 -11 242 33 242 93 0 30 -26 30 -100 2 -126 -48 -320 4
-498 134 -64 47 -185 160 -213 199 l-20 28 57 92 c53 87 103 184 118 234 4 14
1 28 -9 38 -21 20 -28 20 -47 -1z"/>
</g>
</svg>
